<svg xmlns="http://www.w3.org/2000/svg" width="25" height="25" viewBox="0 0 25 25" fill="none">
    <g clip-path="url(#clip0_11_2)">
      <path d="M21.6169 4.63142C21.1061 4.12042 20.4997 3.71506 19.8322 3.4385C19.1647 3.16194 18.4493 3.01959 17.7269 3.01959C17.0044 3.01959 16.289 3.16194 15.6215 3.4385C14.954 3.71506 14.3476 4.12042 13.8369 4.63142L12.7769 5.69142L11.7169 4.63142C10.6852 3.59973 9.28589 3.02013 7.82685 3.02013C6.36782 3.02013 4.96854 3.59973 3.93685 4.63142C2.90516 5.66311 2.32556 7.06238 2.32556 8.52142C2.32556 9.98045 2.90516 11.3797 3.93685 12.4114L4.99685 13.4714L12.7769 21.2514L20.5569 13.4714L21.6169 12.4114C22.1278 11.9007 22.5332 11.2942 22.8098 10.6268C23.0863 9.95931 23.2287 9.24391 23.2287 8.52142C23.2287 7.79893 23.0863 7.08352 22.8098 6.41606C22.5332 5.7486 22.1278 5.14217 21.6169 4.63142Z" stroke="#F4F4F4" stroke-width="2" stroke-linecap="round" stroke-linejoin="round"/>
    </g>
    <defs>
      <clipPath id="clip0_11_2">
        <rect width="24" height="24" fill="white" transform="translate(0.776855 0.0214233)"/>
      </clipPath>
    </defs>
  </svg>